<svg width="43" height="43" viewBox="0 0 43 43" fill="none" xmlns="http://www.w3.org/2000/svg">
<path d="M25.4499 17.05C27.1208 17.05 28.7232 17.7138 29.9047 18.8953C31.0862 20.0768 31.7499 21.6792 31.7499 23.35V30.7H27.5499V23.35C27.5499 22.7931 27.3287 22.259 26.9348 21.8651C26.541 21.4713 26.0069 21.25 25.4499 21.25C24.8929 21.25 24.3588 21.4713 23.965 21.8651C23.5712 22.259 23.3499 22.7931 23.3499 23.35V30.7H19.1499V23.35C19.1499 21.6792 19.8137 20.0768 20.9951 18.8953C22.1766 17.7138 23.779 17.05 25.4499 17.05V17.05Z" stroke="white" stroke-width="2" stroke-linecap="round" stroke-linejoin="round"/>
<path d="M14.95 18.1001H10.75V30.7001H14.95V18.1001Z" stroke="white" stroke-width="2" stroke-linecap="round" stroke-linejoin="round"/>
<path d="M12.85 14.95C14.0098 14.95 14.95 14.0098 14.95 12.85C14.95 11.6902 14.0098 10.75 12.85 10.75C11.6902 10.75 10.75 11.6902 10.75 12.85C10.75 14.0098 11.6902 14.95 12.85 14.95Z" stroke="white" stroke-width="2" stroke-linecap="round" stroke-linejoin="round"/>
</svg>
