<svg width="43" height="43" viewBox="0 0 43 43" fill="none" xmlns="http://www.w3.org/2000/svg">
<path d="M16 31.75H12.85C12.293 31.75 11.7589 31.5287 11.3651 31.1349C10.9712 30.7411 10.75 30.207 10.75 29.65V22.3C10.75 21.743 10.9712 21.2089 11.3651 20.8151C11.7589 20.4212 12.293 20.2 12.85 20.2H16M23.35 18.1V13.9C23.35 13.0646 23.0181 12.2634 22.4274 11.6726C21.8366 11.0819 21.0354 10.75 20.2 10.75L16 20.2V31.75H27.844C28.3504 31.7557 28.8419 31.5782 29.2278 31.2502C29.6137 30.9222 29.8681 30.4657 29.944 29.965L31.393 20.515C31.4387 20.214 31.4184 19.9067 31.3335 19.6144C31.2486 19.322 31.1012 19.0516 30.9015 18.8219C30.7017 18.5922 30.4544 18.4086 30.1766 18.284C29.8989 18.1593 29.5974 18.0966 29.293 18.1H23.35Z" stroke="white" stroke-width="2.25" stroke-linecap="round" stroke-linejoin="round"/>
</svg>
